<svg width="42" height="42" viewBox="0 0 42 42" fill="none" xmlns="http://www.w3.org/2000/svg">
    <rect x="1" y="1" width="40" height="40" fill="#00B3FF" fill-opacity="0.15"/>
    <path d="M15.3117 1H1V15" stroke="#76A6FF"/>
    <path d="M15.3117 41H1V27" stroke="#76A6FF"/>
    <path d="M26.6883 1H41V15" stroke="#76A6FF"/>
    <path d="M26.6883 41H41V27" stroke="#76A6FF"/>
    <g clip-path="url(#clip0_2274_2711)">
        <path d="M29.433 23.1792H11.5722C10.6248 23.1792 9.71618 23.5556 9.04627 24.2255C8.37635 24.8954 8 25.804 8 26.7514C8 27.6988 8.37635 28.6074 9.04627 29.2773C9.71618 29.9473 10.6248 30.3236 11.5722 30.3236H29.4331C30.3805 30.3236 31.2891 29.9473 31.959 29.2773C32.6289 28.6074 33.0052 27.6988 33.0052 26.7514C33.0052 25.804 32.6289 24.8954 31.959 24.2255C31.2891 23.5556 30.3805 23.1792 29.4331 23.1792H29.433ZM14.2513 28.5375C13.8981 28.5375 13.5527 28.4328 13.259 28.2365C12.9653 28.0403 12.7364 27.7613 12.6012 27.4349C12.466 27.1086 12.4307 26.7495 12.4996 26.403C12.5685 26.0565 12.7386 25.7383 12.9884 25.4885C13.2382 25.2387 13.5564 25.0686 13.9029 24.9997C14.2493 24.9308 14.6085 24.9662 14.9348 25.1014C15.2612 25.2365 15.5401 25.4655 15.7364 25.7592C15.9326 26.0529 16.0374 26.3982 16.0374 26.7515C16.0374 27.2252 15.8492 27.6795 15.5143 28.0144C15.1793 28.3494 14.725 28.5375 14.2513 28.5375H14.2513ZM20.5026 28.5375C20.1494 28.5375 19.804 28.4328 19.5103 28.2365C19.2166 28.0403 18.9877 27.7613 18.8525 27.4349C18.7173 27.1086 18.682 26.7495 18.7509 26.403C18.8198 26.0565 18.9899 25.7383 19.2397 25.4885C19.4895 25.2387 19.8077 25.0686 20.1542 24.9997C20.5007 24.9308 20.8598 24.9662 21.1861 25.1014C21.5125 25.2365 21.7914 25.4655 21.9877 25.7592C22.1839 26.0529 22.2887 26.3982 22.2887 26.7515C22.2887 26.986 22.2425 27.2183 22.1527 27.435C22.063 27.6517 21.9314 27.8486 21.7656 28.0144C21.5997 28.1803 21.4028 28.3118 21.1861 28.4016C20.9694 28.4913 20.7372 28.5375 20.5026 28.5375ZM26.7539 28.5375C26.4007 28.5375 26.0554 28.4328 25.7616 28.2365C25.4679 28.0403 25.239 27.7613 25.1038 27.435C24.9686 27.1086 24.9333 26.7495 25.0022 26.403C25.0711 26.0566 25.2412 25.7383 25.491 25.4885C25.7408 25.2387 26.059 25.0686 26.4055 24.9997C26.752 24.9308 27.1111 24.9662 27.4374 25.1013C27.7638 25.2365 28.0427 25.4655 28.239 25.7592C28.4353 26.0529 28.54 26.3982 28.54 26.7515C28.54 27.2252 28.3518 27.6795 28.0169 28.0144C27.6819 28.3494 27.2276 28.5375 26.7539 28.5375ZM19.6095 22.2862H12.4652V16.9279H19.6096L19.6095 22.2862ZM14.2513 20.5001H17.8235V18.714H14.2513V20.5001ZM28.54 22.2862H21.3956V16.928H28.54V22.2862ZM23.1817 20.5001H26.7539V18.714H23.1817V20.5001ZM24.9678 16.0349H16.0374V10.6766H24.9678L24.9678 16.0349ZM17.8235 14.2488H23.1817V12.4627H17.8235V14.2488Z" fill="#3588FE"/>
    </g>
    <defs>
        <clipPath id="clip0_2274_2711">
            <rect width="25" height="25" fill="white" transform="translate(8 8.00012)"/>
        </clipPath>
    </defs>
</svg>
