<svg width="40" height="36" viewBox="0 0 40 36" fill="none" xmlns="http://www.w3.org/2000/svg">
    <circle cx="19.5996" cy="18.0001" r="17.95" stroke="#394A6F" stroke-width="0.1"/>
    <path d="M31.5996 3.84967C35.8798 3.84967 39.3496 7.31946 39.3496 11.5997L39.3496 24.3997C39.3496 28.6799 35.8798 32.1497 31.5996 32.1497L2.97678 32.1497C1.4706 32.1497 0.249606 30.9287 0.249606 29.4225L0.249607 6.57684C0.249607 5.07067 1.47061 3.84967 2.97678 3.84967L31.5996 3.84967Z" fill="#007E1E" stroke="url(#paint0_linear_2245_1207)" stroke-width="0.5"/>
    <ellipse cx="19.5996" cy="18.0001" rx="12" ry="12" fill="url(#paint1_linear_2245_1207)"/>
    <g filter="url(#filter0_i_2245_1207)">
        <circle cx="19.5996" cy="18.0001" r="9" fill="#2E3A44"/>
    </g>
    <circle cx="19.5996" cy="18.0001" r="8.6" stroke="#73B6D3" stroke-width="0.8"/>
    <circle cx="19.5996" cy="18.0001" r="4" fill="#43434A" stroke="black" stroke-width="2"/>
    <rect opacity="0.2" x="1.40039" y="14.4005" width="1.8" height="7.2" fill="url(#paint2_linear_2245_1207)"/>
    <path d="M32 14.4005H33.8L35.6 18.0005L33.8 21.6005H32L33.8 18.0005L32 14.4005Z" fill="url(#paint3_linear_2245_1207)"/>
    <defs>
        <filter id="filter0_i_2245_1207" x="10.5996" y="9.00006" width="18" height="18" filterUnits="userSpaceOnUse" color-interpolation-filters="sRGB">
            <feFlood flood-opacity="0" result="BackgroundImageFix"/>
            <feBlend mode="normal" in="SourceGraphic" in2="BackgroundImageFix" result="shape"/>
            <feColorMatrix in="SourceAlpha" type="matrix" values="0 0 0 0 0 0 0 0 0 0 0 0 0 0 0 0 0 0 127 0" result="hardAlpha"/>
            <feOffset/>
            <feGaussianBlur stdDeviation="0.5"/>
            <feComposite in2="hardAlpha" operator="arithmetic" k2="-1" k3="1"/>
            <feColorMatrix type="matrix" values="0 0 0 0 0.6625 0 0 0 0 0.865 0 0 0 0 1 0 0 0 1 0"/>
            <feBlend mode="normal" in2="shape" result="effect1_innerShadow_2245_1207"/>
        </filter>
        <linearGradient id="paint0_linear_2245_1207" x1="39.5996" y1="17.9997" x2="-0.000395848" y2="17.9997" gradientUnits="userSpaceOnUse">
            <stop stop-color="#85FFE9"/>
            <stop offset="1" stop-color="#316FF0" stop-opacity="0"/>
        </linearGradient>
        <linearGradient id="paint1_linear_2245_1207" x1="28.9655" y1="6.87811" x2="8.18498" y2="29.122" gradientUnits="userSpaceOnUse">
            <stop stop-color="#4F565C"/>
            <stop offset="1" stop-color="#424A4A"/>
        </linearGradient>
        <linearGradient id="paint2_linear_2245_1207" x1="2.30039" y1="10.8005" x2="2.30039" y2="26.1005" gradientUnits="userSpaceOnUse">
            <stop stop-color="#80C7FF" stop-opacity="0"/>
            <stop offset="0.479422" stop-color="#80C7FF"/>
            <stop offset="1" stop-color="#80C7FF" stop-opacity="0"/>
        </linearGradient>
        <linearGradient id="paint3_linear_2245_1207" x1="35.6" y1="18.0005" x2="32" y2="18.0005" gradientUnits="userSpaceOnUse">
            <stop stop-color="#80C7FF"/>
            <stop offset="1" stop-color="#80C7FF" stop-opacity="0"/>
        </linearGradient>
    </defs>
</svg>
